# xmcd
#
# Track frame offsets: 
#        150
#        20255
#        35180
#        54644
#        71931
#        84427
#        100536
#        117063
#        128569
#        153359
#        169746
#        187394
#        206961
#        221374
#        240833
#        262442
#        280877
#        297786
#        318788
#        343096
#
# Disc length: 4773 seconds
#
# Revision: 0
# Processed by: cddbd v1.5.2PL0 Copyright (c) Steve Scherf et al.
# Submitted via: ExactAudioCopy v1.3
#
DISCID=2c12a314
DTITLE=Various Artist - Akella Presents - vol.130 - Country Blues  CD
DTITLE=1
DYEAR=2018
DGENRE=Country
TTITLE0=Brothers Of The Southland - Dixie Highway
TTITLE1=Hans Theessink - Automobile
TTITLE2=Ron LaSalle - Just To Remind You
TTITLE3=Toni Price - Just To Hear Your Voice
TTITLE4=Watermelon Slim - Truck Drivin Buddy
TTITLE5=Paul Thorn - I Backslide On Friday
TTITLE6=Delta Moon - Just Lucky I Guess
TTITLE7=Willie Nelson - Still Not Dead
TTITLE8=Larry Johnson - Two Gun Green
TTITLE9=Outlaws - Alex's Song
TTITLE10=The Mighty Mojo Prophets - She's Gone
TTITLE11=Grover Windham - Working Class Go Between
TTITLE12=Odetta - When I Was a Cowboy
TTITLE13=Peter Karp - Kiss The Bride
TTITLE14=Mike Goudreau - Gossipin Mama
TTITLE15=Tom McGuinness - Midnight
TTITLE16=George Thorogood - Dynaflo Blues
TTITLE17=Rocky Athas - Vows Were Made
TTITLE18=Hot'N'Nasty - Daylight and Drifting
TTITLE19=Me And That Man - Voodoo Queen
EXTD=
EXTT0=
EXTT1=
EXTT2=
EXTT3=
EXTT4=
EXTT5=
EXTT6=
EXTT7=
EXTT8=
EXTT9=
EXTT10=
EXTT11=
EXTT12=
EXTT13=
EXTT14=
EXTT15=
EXTT16=
EXTT17=
EXTT18=
EXTT19=
PLAYORDER=
